999
FreeCAD v1.0 39285 (Git)
  0
SECTION
  2
HEADER
  9
$ACADVER
  1
AC1014
  9
$ACADMAINTVER
 70
     9
  9
$DWGCODEPAGE
  3
ANSI_1252
  9
$TEXTSTYLE
  7
STANDARD
  9
$DIMSTYLE
  2
STANDARD
  9
$DIMTXSTY
  7
STANDARD
  9
$CMLSTYLE
  2
STANDARD
  9
$LUNITS
 70
2
  9
$INSUNITS
 70
4
  9
$PEXTMAX
 10
50
 20
50
 30
50
  9
$PEXTMIN
 10
0
 20
0
 30
0
  9
$HANDSEED
  5
FFFF
  0
ENDSEC
  0
SECTION
  2
CLASSES
  0
CLASS
  1
ACDBDICTIONARYWDFLT
  2
AcDbDictionaryWithDefault
  3
ObjectDBX Classes
 90
        0
280
     0
281
     0
  0
CLASS
  1
XRECORD
  2
AcDbXrecord
  3
ObjectDBX Classes
 90
        0
280
     0
281
     0
  0
CLASS
  1
LWPOLYLINE
  2
AcDbPolyline
  3
ObjectDBX Classes
 90
        0
280
     0
281
     1
  0
ENDSEC
  0
SECTION
  2
TABLES
  0
TABLE
  2
VPORT
  5
20
330
0
100
AcDbSymbolTable
 70
     1
  0
VPORT
  5
21
330
20
100
AcDbSymbolTableRecord
100
AcDbViewportTableRecord
  2
*ACTIVE
 70
     0
  0
ENDTAB
  0
TABLE
  2
LTYPE
  5
22
330
0
100
AcDbSymbolTable
 70
     1
  0
LTYPE
  5
23
330
21
100
AcDbSymbolTableRecord
100
AcDbLinetypeTableRecord
  2
BYBLOCK
 70
     0
  3

 72
    65
 73
     0
 40
0.0
  0
LTYPE
  5
24
330
21
100
AcDbSymbolTableRecord
100
AcDbLinetypeTableRecord
  2
BYLAYER
 70
     0
  3

 72
    65
 73
     0
 40
0.0
  0
LTYPE
  5
25
330
21
100
AcDbSymbolTableRecord
100
AcDbLinetypeTableRecord
  2
CONTINUOUS
 70
     0
  3
Solid line
 72
    65
 73
     0
 40
0.0
  0
ENDTAB
  0
TABLE
  2
LAYER
  5
ACE
330
0
100
AcDbSymbolTable
 70
3
  0
LAYER
  5
ACF
330
ACE
100
AcDbSymbolTableRecord
100
AcDbLayerTableRecord
  2
0
 70
   0
 62
   7
  6
CONTINUOUS
  0
LAYER
  5
AD0
330
ACE
100
AcDbSymbolTableRecord
100
AcDbLayerTableRecord
  2
none
 70
    0
 62
    7
  6
CONTINUOUS
  0
LAYER
  5
AD1
330
ACE
100
AcDbSymbolTableRecord
100
AcDbLayerTableRecord
  2
stair_stringer
 70
    0
 62
    7
  6
CONTINUOUS
  0
ENDTAB
  0
TABLE
  2
STYLE
  5
70
330
0
100
AcDbSymbolTable
 70
     2
  0
STYLE
  5
71
330
70
100
AcDbSymbolTableRecord
100
AcDbTextStyleTableRecord
  2
STANDARD
 70
     0
 40
0.0
 41
1.0
 50
0.0
 71
     0
 42
2.5
  3
arial.ttf
  4

  0
STYLE
  5
72
330
70
100
AcDbSymbolTableRecord
100
AcDbTextStyleTableRecord
  2
ANNOTATIVE
 70
     0
 40
0.0
 41
1.0
 50
0.0
 71
     0
 42
2.5
  3
arial.ttf
  4

  0
ENDTAB
  0
TABLE
  2
VIEW
  5
73
330
0
100
AcDbSymbolTable
 70
     0
  0
ENDTAB
  0
TABLE
  2
UCS
  5
74
330
0
100
AcDbSymbolTable
 70
     0
  0
ENDTAB
  0
TABLE
  2
APPID
  5
75
330
0
100
AcDbSymbolTable
 70
     2
  0
APPID
  5
76
330
75
100
AcDbSymbolTableRecord
100
AcDbRegAppTableRecord
  2
ACAD
 70
     0
  0
APPID
  5
77
330
75
100
AcDbSymbolTableRecord
100
AcDbRegAppTableRecord
  2
ACADANNOTATIVE
 70
     0
  0
ENDTAB
  0
TABLE
  2
DIMSTYLE
  5
78
330
0
100
AcDbSymbolTable
 70
     2
  0
DIMSTYLE
105
79
330
78
100
AcDbSymbolTableRecord
100
AcDbDimStyleTableRecord
  2
STANDARD
 70
     0
  3

  4

  5

  6

  7

 40
0.0
 41
2.5
 42
0.625
 43
3.75
 44
1.25
 45
0.0
 46
0.0
 47
0.0
 48
0.0
140
2.5
141
2.5
142
0.0
143
0.03937007874016
144
1.0
145
0.0
146
1.0
147
0.625
 71
     0
 72
     0
 73
     0
 74
     0
 75
     0
 76
     0
 77
     1
 78
     8
170
     0
171
     3
172
     1
173
     0
174
     0
175
     0
176
     0
177
     0
178
     0
270
     2
271
     2
272
     2
273
     2
274
     3
340
71
275
     0
280
     0
281
     0
282
     0
283
     0
284
     8
285
     0
286
     0
287
     3
288
     0
  0
ENDTAB
  0
TABLE
  2
BLOCK_RECORD
  5
A01
330
0
100
AcDbSymbolTable
  70
5
  0
BLOCK_RECORD
  5
A02
330
A01
100
AcDbSymbolTableRecord
100
AcDbBlockTableRecord
  2
*MODEL_SPACE
  0
BLOCK_RECORD
  5
A03
330
A01
100
AcDbSymbolTableRecord
100
AcDbBlockTableRecord
  2
*PAPER_SPACE
  0
ENDTAB
  0
ENDSEC
  0
SECTION
  2
BLOCKS
  0
BLOCK
  5
A04
330
A02
100
AcDbEntity
  8
0
100
AcDbBlockBegin
  2
*MODEL_SPACE
 70
   0
 10
0
 20
0
 30
0
  3
*MODEL_SPACE
  1
 
  0
ENDBLK
  5
A05
330
A02
100
AcDbEntity
  8
0
100
AcDbBlockEnd
  0
BLOCK
  5
A06
330
A03
100
AcDbEntity
 67
1
  8
0
100
AcDbBlockBegin
  2
*PAPER_SPACE
 70
   0
 10
0
 20
0
 30
0
  3
*PAPER_SPACE
  1
 
  0
ENDBLK
  5
A07
330
A03
100
AcDbEntity
 67
    1
  8
0
100
AcDbBlockEnd
  0
ENDSEC
  0
SECTION
  2
ENTITIES
  0
LINE
  5
A08
330
A02
100
AcDbEntity
  8
stair_stringer
100
AcDbLine
 10
349.481548028
 20
0.000000000
 30
0.000000000
 11
349.481548028
 21
0.000000000
 31
38.100000000
  0
LINE
  5
A09
330
A02
100
AcDbEntity
  8
stair_stringer
100
AcDbLine
 10
-2.584019015
 20
227.364567385
 30
0.000000000
 11
-2.584019015
 21
227.364567385
 31
38.100000000
  0
LINE
  5
A0A
330
A02
100
AcDbEntity
  8
stair_stringer
100
AcDbLine
 10
349.481548028
 20
0.000000000
 30
0.000000000
 11
-2.584019015
 21
227.364567385
 31
0.000000000
  0
LINE
  5
A0B
330
A02
100
AcDbEntity
  8
stair_stringer
100
AcDbLine
 10
349.481548028
 20
0.000000000
 30
38.100000000
 11
-2.584019015
 21
227.364567385
 31
38.100000000
  0
LINE
  5
A0C
330
A02
100
AcDbEntity
  8
stair_stringer
100
AcDbLine
 10
-2.584019015
 20
227.364567385
 30
0.000000000
 11
-2.584019015
 21
227.364567385
 31
38.100000000
  0
LINE
  5
A0D
330
A02
100
AcDbEntity
  8
stair_stringer
100
AcDbLine
 10
88.637401354
 20
368.617540345
 30
0.000000000
 11
88.637401354
 21
368.617540345
 31
38.100000000
  0
LINE
  5
A0E
330
A02
100
AcDbEntity
  8
stair_stringer
100
AcDbLine
 10
-2.584019015
 20
227.364567385
 30
0.000000000
 11
88.637401354
 21
368.617540345
 31
0.000000000
  0
LINE
  5
A0F
330
A02
100
AcDbEntity
  8
stair_stringer
100
AcDbLine
 10
-2.584019015
 20
227.364567385
 30
38.100000000
 11
88.637401354
 21
368.617540345
 31
38.100000000
  0
LINE
  5
A10
330
A02
100
AcDbEntity
  8
stair_stringer
100
AcDbLine
 10
88.637401354
 20
368.617540345
 30
0.000000000
 11
88.637401354
 21
368.617540345
 31
38.100000000
  0
LINE
  5
A11
330
A02
100
AcDbEntity
  8
stair_stringer
100
AcDbLine
 10
334.016432930
 20
210.151326712
 30
0.000000000
 11
334.016432930
 21
210.151326712
 31
38.100000000
  0
LINE
  5
A12
330
A02
100
AcDbEntity
  8
stair_stringer
100
AcDbLine
 10
88.637401354
 20
368.617540345
 30
0.000000000
 11
334.016432930
 21
210.151326712
 31
0.000000000
  0
LINE
  5
A13
330
A02
100
AcDbEntity
  8
stair_stringer
100
AcDbLine
 10
88.637401354
 20
368.617540345
 30
38.100000000
 11
334.016432930
 21
210.151326712
 31
38.100000000
  0
LINE
  5
A14
330
A02
100
AcDbEntity
  8
stair_stringer
100
AcDbLine
 10
334.016432930
 20
210.151326712
 30
0.000000000
 11
334.016432930
 21
210.151326712
 31
38.100000000
  0
LINE
  5
A15
330
A02
100
AcDbEntity
  8
stair_stringer
100
AcDbLine
 10
439.086422403
 20
372.848293301
 30
0.000000000
 11
439.086422403
 21
372.848293301
 31
38.100000000
  0
LINE
  5
A16
330
A02
100
AcDbEntity
  8
stair_stringer
100
AcDbLine
 10
334.016432930
 20
210.151326712
 30
0.000000000
 11
439.086422403
 21
372.848293301
 31
0.000000000
  0
LINE
  5
A17
330
A02
100
AcDbEntity
  8
stair_stringer
100
AcDbLine
 10
334.016432930
 20
210.151326712
 30
38.100000000
 11
439.086422403
 21
372.848293301
 31
38.100000000
  0
LINE
  5
A18
330
A02
100
AcDbEntity
  8
stair_stringer
100
AcDbLine
 10
439.086422403
 20
372.848293301
 30
0.000000000
 11
439.086422403
 21
372.848293301
 31
38.100000000
  0
LINE
  5
A19
330
A02
100
AcDbEntity
  8
stair_stringer
100
AcDbLine
 10
684.465453979
 20
214.382079668
 30
0.000000000
 11
684.465453979
 21
214.382079668
 31
38.100000000
  0
LINE
  5
A1A
330
A02
100
AcDbEntity
  8
stair_stringer
100
AcDbLine
 10
439.086422403
 20
372.848293301
 30
0.000000000
 11
684.465453979
 21
214.382079668
 31
0.000000000
  0
LINE
  5
A1B
330
A02
100
AcDbEntity
  8
stair_stringer
100
AcDbLine
 10
439.086422403
 20
372.848293301
 30
38.100000000
 11
684.465453979
 21
214.382079668
 31
38.100000000
  0
LINE
  5
A1C
330
A02
100
AcDbEntity
  8
stair_stringer
100
AcDbLine
 10
684.465453979
 20
214.382079668
 30
0.000000000
 11
684.465453979
 21
214.382079668
 31
38.100000000
  0
LINE
  5
A1D
330
A02
100
AcDbEntity
  8
stair_stringer
100
AcDbLine
 10
789.535443453
 20
377.079046257
 30
0.000000000
 11
789.535443453
 21
377.079046257
 31
38.100000000
  0
LINE
  5
A1E
330
A02
100
AcDbEntity
  8
stair_stringer
100
AcDbLine
 10
684.465453979
 20
214.382079668
 30
0.000000000
 11
789.535443453
 21
377.079046257
 31
0.000000000
  0
LINE
  5
A1F
330
A02
100
AcDbEntity
  8
stair_stringer
100
AcDbLine
 10
684.465453979
 20
214.382079668
 30
38.100000000
 11
789.535443453
 21
377.079046257
 31
38.100000000
  0
LINE
  5
A20
330
A02
100
AcDbEntity
  8
stair_stringer
100
AcDbLine
 10
789.535443453
 20
377.079046257
 30
0.000000000
 11
789.535443453
 21
377.079046257
 31
38.100000000
  0
LINE
  5
A21
330
A02
100
AcDbEntity
  8
stair_stringer
100
AcDbLine
 10
1034.914475029
 20
218.612832624
 30
0.000000000
 11
1034.914475029
 21
218.612832624
 31
38.100000000
  0
LINE
  5
A22
330
A02
100
AcDbEntity
  8
stair_stringer
100
AcDbLine
 10
789.535443453
 20
377.079046257
 30
0.000000000
 11
1034.914475029
 21
218.612832624
 31
0.000000000
  0
LINE
  5
A23
330
A02
100
AcDbEntity
  8
stair_stringer
100
AcDbLine
 10
789.535443453
 20
377.079046257
 30
38.100000000
 11
1034.914475029
 21
218.612832624
 31
38.100000000
  0
LINE
  5
A24
330
A02
100
AcDbEntity
  8
stair_stringer
100
AcDbLine
 10
1034.914475029
 20
218.612832624
 30
0.000000000
 11
1034.914475029
 21
218.612832624
 31
38.100000000
  0
LINE
  5
A25
330
A02
100
AcDbEntity
  8
stair_stringer
100
AcDbLine
 10
1139.984464502
 20
381.309799213
 30
0.000000000
 11
1139.984464502
 21
381.309799213
 31
38.100000000
  0
LINE
  5
A26
330
A02
100
AcDbEntity
  8
stair_stringer
100
AcDbLine
 10
1034.914475029
 20
218.612832624
 30
0.000000000
 11
1139.984464502
 21
381.309799213
 31
0.000000000
  0
LINE
  5
A27
330
A02
100
AcDbEntity
  8
stair_stringer
100
AcDbLine
 10
1034.914475029
 20
218.612832624
 30
38.100000000
 11
1139.984464502
 21
381.309799213
 31
38.100000000
  0
LINE
  5
A28
330
A02
100
AcDbEntity
  8
stair_stringer
100
AcDbLine
 10
1139.984464502
 20
381.309799213
 30
0.000000000
 11
1139.984464502
 21
381.309799213
 31
38.100000000
  0
LINE
  5
A29
330
A02
100
AcDbEntity
  8
stair_stringer
100
AcDbLine
 10
1385.363496078
 20
222.843585580
 30
0.000000000
 11
1385.363496078
 21
222.843585580
 31
38.100000000
  0
LINE
  5
A2A
330
A02
100
AcDbEntity
  8
stair_stringer
100
AcDbLine
 10
1139.984464502
 20
381.309799213
 30
0.000000000
 11
1385.363496078
 21
222.843585580
 31
0.000000000
  0
LINE
  5
A2B
330
A02
100
AcDbEntity
  8
stair_stringer
100
AcDbLine
 10
1139.984464502
 20
381.309799213
 30
38.100000000
 11
1385.363496078
 21
222.843585580
 31
38.100000000
  0
LINE
  5
A2C
330
A02
100
AcDbEntity
  8
stair_stringer
100
AcDbLine
 10
1385.363496078
 20
222.843585580
 30
0.000000000
 11
1385.363496078
 21
222.843585580
 31
38.100000000
  0
LINE
  5
A2D
330
A02
100
AcDbEntity
  8
stair_stringer
100
AcDbLine
 10
1490.433485551
 20
385.540552169
 30
0.000000000
 11
1490.433485551
 21
385.540552169
 31
38.100000000
  0
LINE
  5
A2E
330
A02
100
AcDbEntity
  8
stair_stringer
100
AcDbLine
 10
1385.363496078
 20
222.843585580
 30
0.000000000
 11
1490.433485551
 21
385.540552169
 31
0.000000000
  0
LINE
  5
A2F
330
A02
100
AcDbEntity
  8
stair_stringer
100
AcDbLine
 10
1385.363496078
 20
222.843585580
 30
38.100000000
 11
1490.433485551
 21
385.540552169
 31
38.100000000
  0
LINE
  5
A30
330
A02
100
AcDbEntity
  8
stair_stringer
100
AcDbLine
 10
1490.433485551
 20
385.540552169
 30
0.000000000
 11
1490.433485551
 21
385.540552169
 31
38.100000000
  0
LINE
  5
A31
330
A02
100
AcDbEntity
  8
stair_stringer
100
AcDbLine
 10
1735.812517127
 20
227.074338536
 30
0.000000000
 11
1735.812517127
 21
227.074338536
 31
38.100000000
  0
LINE
  5
A32
330
A02
100
AcDbEntity
  8
stair_stringer
100
AcDbLine
 10
1490.433485551
 20
385.540552169
 30
0.000000000
 11
1735.812517127
 21
227.074338536
 31
0.000000000
  0
LINE
  5
A33
330
A02
100
AcDbEntity
  8
stair_stringer
100
AcDbLine
 10
1490.433485551
 20
385.540552169
 30
38.100000000
 11
1735.812517127
 21
227.074338536
 31
38.100000000
  0
LINE
  5
A34
330
A02
100
AcDbEntity
  8
stair_stringer
100
AcDbLine
 10
1735.812517127
 20
227.074338536
 30
0.000000000
 11
1735.812517127
 21
227.074338536
 31
38.100000000
  0
LINE
  5
A35
330
A02
100
AcDbEntity
  8
stair_stringer
100
AcDbLine
 10
1840.882506601
 20
389.771305125
 30
0.000000000
 11
1840.882506601
 21
389.771305125
 31
38.100000000
  0
LINE
  5
A36
330
A02
100
AcDbEntity
  8
stair_stringer
100
AcDbLine
 10
1735.812517127
 20
227.074338536
 30
0.000000000
 11
1840.882506601
 21
389.771305125
 31
0.000000000
  0
LINE
  5
A37
330
A02
100
AcDbEntity
  8
stair_stringer
100
AcDbLine
 10
1735.812517127
 20
227.074338536
 30
38.100000000
 11
1840.882506601
 21
389.771305125
 31
38.100000000
  0
LINE
  5
A38
330
A02
100
AcDbEntity
  8
stair_stringer
100
AcDbLine
 10
1840.882506601
 20
389.771305125
 30
0.000000000
 11
1840.882506601
 21
389.771305125
 31
38.100000000
  0
LINE
  5
A39
330
A02
100
AcDbEntity
  8
stair_stringer
100
AcDbLine
 10
2086.261538176
 20
231.305091492
 30
0.000000000
 11
2086.261538176
 21
231.305091492
 31
38.100000000
  0
LINE
  5
A3A
330
A02
100
AcDbEntity
  8
stair_stringer
100
AcDbLine
 10
1840.882506601
 20
389.771305125
 30
0.000000000
 11
2086.261538176
 21
231.305091492
 31
0.000000000
  0
LINE
  5
A3B
330
A02
100
AcDbEntity
  8
stair_stringer
100
AcDbLine
 10
1840.882506601
 20
389.771305125
 30
38.100000000
 11
2086.261538176
 21
231.305091492
 31
38.100000000
  0
LINE
  5
A3C
330
A02
100
AcDbEntity
  8
stair_stringer
100
AcDbLine
 10
2086.261538176
 20
231.305091492
 30
0.000000000
 11
2086.261538176
 21
231.305091492
 31
38.100000000
  0
LINE
  5
A3D
330
A02
100
AcDbEntity
  8
stair_stringer
100
AcDbLine
 10
2191.331527650
 20
394.002058080
 30
0.000000000
 11
2191.331527650
 21
394.002058080
 31
38.100000000
  0
LINE
  5
A3E
330
A02
100
AcDbEntity
  8
stair_stringer
100
AcDbLine
 10
2086.261538176
 20
231.305091492
 30
0.000000000
 11
2191.331527650
 21
394.002058080
 31
0.000000000
  0
LINE
  5
A3F
330
A02
100
AcDbEntity
  8
stair_stringer
100
AcDbLine
 10
2086.261538176
 20
231.305091492
 30
38.100000000
 11
2191.331527650
 21
394.002058080
 31
38.100000000
  0
LINE
  5
A40
330
A02
100
AcDbEntity
  8
stair_stringer
100
AcDbLine
 10
2191.331527650
 20
394.002058080
 30
0.000000000
 11
2191.331527650
 21
394.002058080
 31
38.100000000
  0
LINE
  5
A41
330
A02
100
AcDbEntity
  8
stair_stringer
100
AcDbLine
 10
2436.710559226
 20
235.535844448
 30
0.000000000
 11
2436.710559226
 21
235.535844448
 31
38.100000000
  0
LINE
  5
A42
330
A02
100
AcDbEntity
  8
stair_stringer
100
AcDbLine
 10
2191.331527650
 20
394.002058080
 30
0.000000000
 11
2436.710559226
 21
235.535844448
 31
0.000000000
  0
LINE
  5
A43
330
A02
100
AcDbEntity
  8
stair_stringer
100
AcDbLine
 10
2191.331527650
 20
394.002058080
 30
38.100000000
 11
2436.710559226
 21
235.535844448
 31
38.100000000
  0
LINE
  5
A44
330
A02
100
AcDbEntity
  8
stair_stringer
100
AcDbLine
 10
2436.710559226
 20
235.535844448
 30
0.000000000
 11
2436.710559226
 21
235.535844448
 31
38.100000000
  0
LINE
  5
A45
330
A02
100
AcDbEntity
  8
stair_stringer
100
AcDbLine
 10
2541.780548699
 20
398.232811036
 30
0.000000000
 11
2541.780548699
 21
398.232811036
 31
38.100000000
  0
LINE
  5
A46
330
A02
100
AcDbEntity
  8
stair_stringer
100
AcDbLine
 10
2436.710559226
 20
235.535844448
 30
0.000000000
 11
2541.780548699
 21
398.232811036
 31
0.000000000
  0
LINE
  5
A47
330
A02
100
AcDbEntity
  8
stair_stringer
100
AcDbLine
 10
2436.710559226
 20
235.535844448
 30
38.100000000
 11
2541.780548699
 21
398.232811036
 31
38.100000000
  0
LINE
  5
A48
330
A02
100
AcDbEntity
  8
stair_stringer
100
AcDbLine
 10
2541.780548699
 20
398.232811036
 30
0.000000000
 11
2541.780548699
 21
398.232811036
 31
38.100000000
  0
LINE
  5
A49
330
A02
100
AcDbEntity
  8
stair_stringer
100
AcDbLine
 10
2787.159580275
 20
239.766597404
 30
0.000000000
 11
2787.159580275
 21
239.766597404
 31
38.100000000
  0
LINE
  5
A4A
330
A02
100
AcDbEntity
  8
stair_stringer
100
AcDbLine
 10
2541.780548699
 20
398.232811036
 30
0.000000000
 11
2787.159580275
 21
239.766597404
 31
0.000000000
  0
LINE
  5
A4B
330
A02
100
AcDbEntity
  8
stair_stringer
100
AcDbLine
 10
2541.780548699
 20
398.232811036
 30
38.100000000
 11
2787.159580275
 21
239.766597404
 31
38.100000000
  0
LINE
  5
A4C
330
A02
100
AcDbEntity
  8
stair_stringer
100
AcDbLine
 10
2787.159580275
 20
239.766597404
 30
0.000000000
 11
2787.159580275
 21
239.766597404
 31
38.100000000
  0
LINE
  5
A4D
330
A02
100
AcDbEntity
  8
stair_stringer
100
AcDbLine
 10
2892.229569749
 20
402.463563992
 30
0.000000000
 11
2892.229569749
 21
402.463563992
 31
38.100000000
  0
LINE
  5
A4E
330
A02
100
AcDbEntity
  8
stair_stringer
100
AcDbLine
 10
2787.159580275
 20
239.766597404
 30
0.000000000
 11
2892.229569749
 21
402.463563992
 31
0.000000000
  0
LINE
  5
A4F
330
A02
100
AcDbEntity
  8
stair_stringer
100
AcDbLine
 10
2787.159580275
 20
239.766597404
 30
38.100000000
 11
2892.229569749
 21
402.463563992
 31
38.100000000
  0
LINE
  5
A50
330
A02
100
AcDbEntity
  8
stair_stringer
100
AcDbLine
 10
2892.229569749
 20
402.463563992
 30
0.000000000
 11
2892.229569749
 21
402.463563992
 31
38.100000000
  0
LINE
  5
A51
330
A02
100
AcDbEntity
  8
stair_stringer
100
AcDbLine
 10
3137.608601324
 20
243.997350360
 30
0.000000000
 11
3137.608601324
 21
243.997350360
 31
38.100000000
  0
LINE
  5
A52
330
A02
100
AcDbEntity
  8
stair_stringer
100
AcDbLine
 10
2892.229569749
 20
402.463563992
 30
0.000000000
 11
3137.608601324
 21
243.997350360
 31
0.000000000
  0
LINE
  5
A53
330
A02
100
AcDbEntity
  8
stair_stringer
100
AcDbLine
 10
2892.229569749
 20
402.463563992
 30
38.100000000
 11
3137.608601324
 21
243.997350360
 31
38.100000000
  0
LINE
  5
A54
330
A02
100
AcDbEntity
  8
stair_stringer
100
AcDbLine
 10
3137.608601324
 20
243.997350360
 30
0.000000000
 11
3137.608601324
 21
243.997350360
 31
38.100000000
  0
LINE
  5
A55
330
A02
100
AcDbEntity
  8
stair_stringer
100
AcDbLine
 10
3242.678590798
 20
406.694316948
 30
0.000000000
 11
3242.678590798
 21
406.694316948
 31
38.100000000
  0
LINE
  5
A56
330
A02
100
AcDbEntity
  8
stair_stringer
100
AcDbLine
 10
3137.608601324
 20
243.997350360
 30
0.000000000
 11
3242.678590798
 21
406.694316948
 31
0.000000000
  0
LINE
  5
A57
330
A02
100
AcDbEntity
  8
stair_stringer
100
AcDbLine
 10
3137.608601324
 20
243.997350360
 30
38.100000000
 11
3242.678590798
 21
406.694316948
 31
38.100000000
  0
LINE
  5
A58
330
A02
100
AcDbEntity
  8
stair_stringer
100
AcDbLine
 10
3242.678590798
 20
406.694316948
 30
0.000000000
 11
3242.678590798
 21
406.694316948
 31
38.100000000
  0
LINE
  5
A59
330
A02
100
AcDbEntity
  8
stair_stringer
100
AcDbLine
 10
3488.057622374
 20
248.228103316
 30
0.000000000
 11
3488.057622374
 21
248.228103316
 31
38.100000000
  0
LINE
  5
A5A
330
A02
100
AcDbEntity
  8
stair_stringer
100
AcDbLine
 10
3242.678590798
 20
406.694316948
 30
0.000000000
 11
3488.057622374
 21
248.228103316
 31
0.000000000
  0
LINE
  5
A5B
330
A02
100
AcDbEntity
  8
stair_stringer
100
AcDbLine
 10
3242.678590798
 20
406.694316948
 30
38.100000000
 11
3488.057622374
 21
248.228103316
 31
38.100000000
  0
LINE
  5
A5C
330
A02
100
AcDbEntity
  8
stair_stringer
100
AcDbLine
 10
3488.057622374
 20
248.228103316
 30
0.000000000
 11
3488.057622374
 21
248.228103316
 31
38.100000000
  0
LINE
  5
A5D
330
A02
100
AcDbEntity
  8
stair_stringer
100
AcDbLine
 10
3593.127611847
 20
410.925069904
 30
0.000000000
 11
3593.127611847
 21
410.925069904
 31
38.100000000
  0
LINE
  5
A5E
330
A02
100
AcDbEntity
  8
stair_stringer
100
AcDbLine
 10
3488.057622374
 20
248.228103316
 30
0.000000000
 11
3593.127611847
 21
410.925069904
 31
0.000000000
  0
LINE
  5
A5F
330
A02
100
AcDbEntity
  8
stair_stringer
100
AcDbLine
 10
3488.057622374
 20
248.228103316
 30
38.100000000
 11
3593.127611847
 21
410.925069904
 31
38.100000000
  0
LINE
  5
A60
330
A02
100
AcDbEntity
  8
stair_stringer
100
AcDbLine
 10
3593.127611847
 20
410.925069904
 30
0.000000000
 11
3593.127611847
 21
410.925069904
 31
38.100000000
  0
LINE
  5
A61
330
A02
100
AcDbEntity
  8
stair_stringer
100
AcDbLine
 10
3838.506643423
 20
252.458856272
 30
0.000000000
 11
3838.506643423
 21
252.458856272
 31
38.100000000
  0
LINE
  5
A62
330
A02
100
AcDbEntity
  8
stair_stringer
100
AcDbLine
 10
3593.127611847
 20
410.925069904
 30
0.000000000
 11
3838.506643423
 21
252.458856272
 31
0.000000000
  0
LINE
  5
A63
330
A02
100
AcDbEntity
  8
stair_stringer
100
AcDbLine
 10
3593.127611847
 20
410.925069904
 30
38.100000000
 11
3838.506643423
 21
252.458856272
 31
38.100000000
  0
LINE
  5
A64
330
A02
100
AcDbEntity
  8
stair_stringer
100
AcDbLine
 10
3838.506643423
 20
252.458856272
 30
0.000000000
 11
3838.506643423
 21
252.458856272
 31
38.100000000
  0
LINE
  5
A65
330
A02
100
AcDbEntity
  8
stair_stringer
100
AcDbLine
 10
3943.576632897
 20
415.155822860
 30
0.000000000
 11
3943.576632897
 21
415.155822860
 31
38.100000000
  0
LINE
  5
A66
330
A02
100
AcDbEntity
  8
stair_stringer
100
AcDbLine
 10
3838.506643423
 20
252.458856272
 30
0.000000000
 11
3943.576632897
 21
415.155822860
 31
0.000000000
  0
LINE
  5
A67
330
A02
100
AcDbEntity
  8
stair_stringer
100
AcDbLine
 10
3838.506643423
 20
252.458856272
 30
38.100000000
 11
3943.576632897
 21
415.155822860
 31
38.100000000
  0
LINE
  5
A68
330
A02
100
AcDbEntity
  8
stair_stringer
100
AcDbLine
 10
3943.576632897
 20
415.155822860
 30
0.000000000
 11
3943.576632897
 21
415.155822860
 31
38.100000000
  0
LINE
  5
A69
330
A02
100
AcDbEntity
  8
stair_stringer
100
AcDbLine
 10
4188.955664472
 20
256.689609228
 30
0.000000000
 11
4188.955664472
 21
256.689609228
 31
38.100000000
  0
LINE
  5
A6A
330
A02
100
AcDbEntity
  8
stair_stringer
100
AcDbLine
 10
3943.576632897
 20
415.155822860
 30
0.000000000
 11
4188.955664472
 21
256.689609228
 31
0.000000000
  0
LINE
  5
A6B
330
A02
100
AcDbEntity
  8
stair_stringer
100
AcDbLine
 10
3943.576632897
 20
415.155822860
 30
38.100000000
 11
4188.955664472
 21
256.689609228
 31
38.100000000
  0
LINE
  5
A6C
330
A02
100
AcDbEntity
  8
stair_stringer
100
AcDbLine
 10
4188.955664472
 20
256.689609228
 30
0.000000000
 11
4188.955664472
 21
256.689609228
 31
38.100000000
  0
LINE
  5
A6D
330
A02
100
AcDbEntity
  8
stair_stringer
100
AcDbLine
 10
4294.025653946
 20
419.386575816
 30
0.000000000
 11
4294.025653946
 21
419.386575816
 31
38.100000000
  0
LINE
  5
A6E
330
A02
100
AcDbEntity
  8
stair_stringer
100
AcDbLine
 10
4188.955664472
 20
256.689609228
 30
0.000000000
 11
4294.025653946
 21
419.386575816
 31
0.000000000
  0
LINE
  5
A6F
330
A02
100
AcDbEntity
  8
stair_stringer
100
AcDbLine
 10
4188.955664472
 20
256.689609228
 30
38.100000000
 11
4294.025653946
 21
419.386575816
 31
38.100000000
  0
LINE
  5
A70
330
A02
100
AcDbEntity
  8
stair_stringer
100
AcDbLine
 10
4294.025653946
 20
419.386575816
 30
0.000000000
 11
4294.025653946
 21
419.386575816
 31
38.100000000
  0
LINE
  5
A71
330
A02
100
AcDbEntity
  8
stair_stringer
100
AcDbLine
 10
4539.404685522
 20
260.920362184
 30
0.000000000
 11
4539.404685522
 21
260.920362184
 31
38.100000000
  0
LINE
  5
A72
330
A02
100
AcDbEntity
  8
stair_stringer
100
AcDbLine
 10
4294.025653946
 20
419.386575816
 30
0.000000000
 11
4539.404685522
 21
260.920362184
 31
0.000000000
  0
LINE
  5
A73
330
A02
100
AcDbEntity
  8
stair_stringer
100
AcDbLine
 10
4294.025653946
 20
419.386575816
 30
38.100000000
 11
4539.404685522
 21
260.920362184
 31
38.100000000
  0
LINE
  5
A74
330
A02
100
AcDbEntity
  8
stair_stringer
100
AcDbLine
 10
4539.404685522
 20
260.920362184
 30
0.000000000
 11
4539.404685522
 21
260.920362184
 31
38.100000000
  0
LINE
  5
A75
330
A02
100
AcDbEntity
  8
stair_stringer
100
AcDbLine
 10
4644.474674995
 20
423.617328772
 30
0.000000000
 11
4644.474674995
 21
423.617328772
 31
38.100000000
  0
LINE
  5
A76
330
A02
100
AcDbEntity
  8
stair_stringer
100
AcDbLine
 10
4539.404685522
 20
260.920362184
 30
0.000000000
 11
4644.474674995
 21
423.617328772
 31
0.000000000
  0
LINE
  5
A77
330
A02
100
AcDbEntity
  8
stair_stringer
100
AcDbLine
 10
4539.404685522
 20
260.920362184
 30
38.100000000
 11
4644.474674995
 21
423.617328772
 31
38.100000000
  0
LINE
  5
A78
330
A02
100
AcDbEntity
  8
stair_stringer
100
AcDbLine
 10
4644.474674995
 20
423.617328772
 30
0.000000000
 11
4644.474674995
 21
423.617328772
 31
38.100000000
  0
LINE
  5
A79
330
A02
100
AcDbEntity
  8
stair_stringer
100
AcDbLine
 10
4889.853706571
 20
265.151115140
 30
0.000000000
 11
4889.853706571
 21
265.151115140
 31
38.100000000
  0
LINE
  5
A7A
330
A02
100
AcDbEntity
  8
stair_stringer
100
AcDbLine
 10
4644.474674995
 20
423.617328772
 30
0.000000000
 11
4889.853706571
 21
265.151115140
 31
0.000000000
  0
LINE
  5
A7B
330
A02
100
AcDbEntity
  8
stair_stringer
100
AcDbLine
 10
4644.474674995
 20
423.617328772
 30
38.100000000
 11
4889.853706571
 21
265.151115140
 31
38.100000000
  0
LINE
  5
A7C
330
A02
100
AcDbEntity
  8
stair_stringer
100
AcDbLine
 10
4889.853706571
 20
265.151115140
 30
0.000000000
 11
4889.853706571
 21
265.151115140
 31
38.100000000
  0
LINE
  5
A7D
330
A02
100
AcDbEntity
  8
stair_stringer
100
AcDbLine
 10
4994.923696045
 20
427.848081728
 30
0.000000000
 11
4994.923696045
 21
427.848081728
 31
38.100000000
  0
LINE
  5
A7E
330
A02
100
AcDbEntity
  8
stair_stringer
100
AcDbLine
 10
4889.853706571
 20
265.151115140
 30
0.000000000
 11
4994.923696045
 21
427.848081728
 31
0.000000000
  0
LINE
  5
A7F
330
A02
100
AcDbEntity
  8
stair_stringer
100
AcDbLine
 10
4889.853706571
 20
265.151115140
 30
38.100000000
 11
4994.923696045
 21
427.848081728
 31
38.100000000
  0
LINE
  5
A80
330
A02
100
AcDbEntity
  8
stair_stringer
100
AcDbLine
 10
4994.923696045
 20
427.848081728
 30
0.000000000
 11
4994.923696045
 21
427.848081728
 31
38.100000000
  0
LINE
  5
A81
330
A02
100
AcDbEntity
  8
stair_stringer
100
AcDbLine
 10
5240.302727620
 20
269.381868096
 30
0.000000000
 11
5240.302727620
 21
269.381868096
 31
38.100000000
  0
LINE
  5
A82
330
A02
100
AcDbEntity
  8
stair_stringer
100
AcDbLine
 10
4994.923696045
 20
427.848081728
 30
0.000000000
 11
5240.302727620
 21
269.381868096
 31
0.000000000
  0
LINE
  5
A83
330
A02
100
AcDbEntity
  8
stair_stringer
100
AcDbLine
 10
4994.923696045
 20
427.848081728
 30
38.100000000
 11
5240.302727620
 21
269.381868096
 31
38.100000000
  0
LINE
  5
A84
330
A02
100
AcDbEntity
  8
stair_stringer
100
AcDbLine
 10
5240.302727620
 20
269.381868096
 30
0.000000000
 11
5240.302727620
 21
269.381868096
 31
38.100000000
  0
LINE
  5
A85
330
A02
100
AcDbEntity
  8
stair_stringer
100
AcDbLine
 10
5066.334384394
 20
-0.001633960
 30
0.000000000
 11
5066.334384394
 21
-0.001633960
 31
38.100000000
  0
LINE
  5
A86
330
A02
100
AcDbEntity
  8
stair_stringer
100
AcDbLine
 10
5240.302727620
 20
269.381868096
 30
0.000000000
 11
5066.334384394
 21
-0.001633960
 31
0.000000000
  0
LINE
  5
A87
330
A02
100
AcDbEntity
  8
stair_stringer
100
AcDbLine
 10
5240.302727620
 20
269.381868096
 30
38.100000000
 11
5066.334384394
 21
-0.001633960
 31
38.100000000
  0
LINE
  5
A88
330
A02
100
AcDbEntity
  8
stair_stringer
100
AcDbLine
 10
5066.334384394
 20
-0.001633960
 30
0.000000000
 11
5066.334384394
 21
-0.001633960
 31
38.100000000
  0
LINE
  5
A89
330
A02
100
AcDbEntity
  8
stair_stringer
100
AcDbLine
 10
349.481548028
 20
0.000000000
 30
0.000000000
 11
349.481548028
 21
0.000000000
 31
38.100000000
  0
LINE
  5
A8A
330
A02
100
AcDbEntity
  8
stair_stringer
100
AcDbLine
 10
5066.334384394
 20
-0.001633960
 30
0.000000000
 11
349.481548028
 21
0.000000000
 31
0.000000000
  0
LINE
  5
A8B
330
A02
100
AcDbEntity
  8
stair_stringer
100
AcDbLine
 10
5066.334384394
 20
-0.001633960
 30
38.100000000
 11
349.481548028
 21
0.000000000
 31
38.100000000
  0
LINE
  5
A8C
330
A02
100
AcDbEntity
  8
stair_stringer
100
AcDbLine
 10
349.481548028
 20
0.000000000
 30
0.000000000
 11
-2.584019015
 21
227.364567385
 31
0.000000000
  0
LINE
  5
A8D
330
A02
100
AcDbEntity
  8
stair_stringer
100
AcDbLine
 10
-2.584019015
 20
227.364567385
 30
0.000000000
 11
88.637401354
 21
368.617540345
 31
0.000000000
  0
LINE
  5
A8E
330
A02
100
AcDbEntity
  8
stair_stringer
100
AcDbLine
 10
88.637401354
 20
368.617540345
 30
0.000000000
 11
334.016432930
 21
210.151326712
 31
0.000000000
  0
LINE
  5
A8F
330
A02
100
AcDbEntity
  8
stair_stringer
100
AcDbLine
 10
334.016432930
 20
210.151326712
 30
0.000000000
 11
439.086422403
 21
372.848293301
 31
0.000000000
  0
LINE
  5
A90
330
A02
100
AcDbEntity
  8
stair_stringer
100
AcDbLine
 10
439.086422403
 20
372.848293301
 30
0.000000000
 11
684.465453979
 21
214.382079668
 31
0.000000000
  0
LINE
  5
A91
330
A02
100
AcDbEntity
  8
stair_stringer
100
AcDbLine
 10
684.465453979
 20
214.382079668
 30
0.000000000
 11
789.535443453
 21
377.079046257
 31
0.000000000
  0
LINE
  5
A92
330
A02
100
AcDbEntity
  8
stair_stringer
100
AcDbLine
 10
789.535443453
 20
377.079046257
 30
0.000000000
 11
1034.914475029
 21
218.612832624
 31
0.000000000
  0
LINE
  5
A93
330
A02
100
AcDbEntity
  8
stair_stringer
100
AcDbLine
 10
1034.914475029
 20
218.612832624
 30
0.000000000
 11
1139.984464502
 21
381.309799213
 31
0.000000000
  0
LINE
  5
A94
330
A02
100
AcDbEntity
  8
stair_stringer
100
AcDbLine
 10
1139.984464502
 20
381.309799213
 30
0.000000000
 11
1385.363496078
 21
222.843585580
 31
0.000000000
  0
LINE
  5
A95
330
A02
100
AcDbEntity
  8
stair_stringer
100
AcDbLine
 10
1385.363496078
 20
222.843585580
 30
0.000000000
 11
1490.433485551
 21
385.540552169
 31
0.000000000
  0
LINE
  5
A96
330
A02
100
AcDbEntity
  8
stair_stringer
100
AcDbLine
 10
1490.433485551
 20
385.540552169
 30
0.000000000
 11
1735.812517127
 21
227.074338536
 31
0.000000000
  0
LINE
  5
A97
330
A02
100
AcDbEntity
  8
stair_stringer
100
AcDbLine
 10
1735.812517127
 20
227.074338536
 30
0.000000000
 11
1840.882506601
 21
389.771305125
 31
0.000000000
  0
LINE
  5
A98
330
A02
100
AcDbEntity
  8
stair_stringer
100
AcDbLine
 10
1840.882506601
 20
389.771305125
 30
0.000000000
 11
2086.261538176
 21
231.305091492
 31
0.000000000
  0
LINE
  5
A99
330
A02
100
AcDbEntity
  8
stair_stringer
100
AcDbLine
 10
2086.261538176
 20
231.305091492
 30
0.000000000
 11
2191.331527650
 21
394.002058080
 31
0.000000000
  0
LINE
  5
A9A
330
A02
100
AcDbEntity
  8
stair_stringer
100
AcDbLine
 10
2191.331527650
 20
394.002058080
 30
0.000000000
 11
2436.710559226
 21
235.535844448
 31
0.000000000
  0
LINE
  5
A9B
330
A02
100
AcDbEntity
  8
stair_stringer
100
AcDbLine
 10
2436.710559226
 20
235.535844448
 30
0.000000000
 11
2541.780548699
 21
398.232811036
 31
0.000000000
  0
LINE
  5
A9C
330
A02
100
AcDbEntity
  8
stair_stringer
100
AcDbLine
 10
2541.780548699
 20
398.232811036
 30
0.000000000
 11
2787.159580275
 21
239.766597404
 31
0.000000000
  0
LINE
  5
A9D
330
A02
100
AcDbEntity
  8
stair_stringer
100
AcDbLine
 10
2787.159580275
 20
239.766597404
 30
0.000000000
 11
2892.229569749
 21
402.463563992
 31
0.000000000
  0
LINE
  5
A9E
330
A02
100
AcDbEntity
  8
stair_stringer
100
AcDbLine
 10
2892.229569749
 20
402.463563992
 30
0.000000000
 11
3137.608601324
 21
243.997350360
 31
0.000000000
  0
LINE
  5
A9F
330
A02
100
AcDbEntity
  8
stair_stringer
100
AcDbLine
 10
3137.608601324
 20
243.997350360
 30
0.000000000
 11
3242.678590798
 21
406.694316948
 31
0.000000000
  0
LINE
  5
AA0
330
A02
100
AcDbEntity
  8
stair_stringer
100
AcDbLine
 10
3242.678590798
 20
406.694316948
 30
0.000000000
 11
3488.057622374
 21
248.228103316
 31
0.000000000
  0
LINE
  5
AA1
330
A02
100
AcDbEntity
  8
stair_stringer
100
AcDbLine
 10
3488.057622374
 20
248.228103316
 30
0.000000000
 11
3593.127611847
 21
410.925069904
 31
0.000000000
  0
LINE
  5
AA2
330
A02
100
AcDbEntity
  8
stair_stringer
100
AcDbLine
 10
3593.127611847
 20
410.925069904
 30
0.000000000
 11
3838.506643423
 21
252.458856272
 31
0.000000000
  0
LINE
  5
AA3
330
A02
100
AcDbEntity
  8
stair_stringer
100
AcDbLine
 10
3838.506643423
 20
252.458856272
 30
0.000000000
 11
3943.576632897
 21
415.155822860
 31
0.000000000
  0
LINE
  5
AA4
330
A02
100
AcDbEntity
  8
stair_stringer
100
AcDbLine
 10
3943.576632897
 20
415.155822860
 30
0.000000000
 11
4188.955664472
 21
256.689609228
 31
0.000000000
  0
LINE
  5
AA5
330
A02
100
AcDbEntity
  8
stair_stringer
100
AcDbLine
 10
4188.955664472
 20
256.689609228
 30
0.000000000
 11
4294.025653946
 21
419.386575816
 31
0.000000000
  0
LINE
  5
AA6
330
A02
100
AcDbEntity
  8
stair_stringer
100
AcDbLine
 10
4294.025653946
 20
419.386575816
 30
0.000000000
 11
4539.404685522
 21
260.920362184
 31
0.000000000
  0
LINE
  5
AA7
330
A02
100
AcDbEntity
  8
stair_stringer
100
AcDbLine
 10
4539.404685522
 20
260.920362184
 30
0.000000000
 11
4644.474674995
 21
423.617328772
 31
0.000000000
  0
LINE
  5
AA8
330
A02
100
AcDbEntity
  8
stair_stringer
100
AcDbLine
 10
4644.474674995
 20
423.617328772
 30
0.000000000
 11
4889.853706571
 21
265.151115140
 31
0.000000000
  0
LINE
  5
AA9
330
A02
100
AcDbEntity
  8
stair_stringer
100
AcDbLine
 10
4889.853706571
 20
265.151115140
 30
0.000000000
 11
4994.923696045
 21
427.848081728
 31
0.000000000
  0
LINE
  5
AAA
330
A02
100
AcDbEntity
  8
stair_stringer
100
AcDbLine
 10
4994.923696045
 20
427.848081728
 30
0.000000000
 11
5240.302727620
 21
269.381868096
 31
0.000000000
  0
LINE
  5
AAB
330
A02
100
AcDbEntity
  8
stair_stringer
100
AcDbLine
 10
5240.302727620
 20
269.381868096
 30
0.000000000
 11
5066.334384394
 21
-0.001633960
 31
0.000000000
  0
LINE
  5
AAC
330
A02
100
AcDbEntity
  8
stair_stringer
100
AcDbLine
 10
5066.334384394
 20
-0.001633960
 30
0.000000000
 11
349.481548028
 21
0.000000000
 31
0.000000000
  0
LINE
  5
AAD
330
A02
100
AcDbEntity
  8
stair_stringer
100
AcDbLine
 10
349.481548028
 20
0.000000000
 30
38.100000000
 11
-2.584019015
 21
227.364567385
 31
38.100000000
  0
LINE
  5
AAE
330
A02
100
AcDbEntity
  8
stair_stringer
100
AcDbLine
 10
-2.584019015
 20
227.364567385
 30
38.100000000
 11
88.637401354
 21
368.617540345
 31
38.100000000
  0
LINE
  5
AAF
330
A02
100
AcDbEntity
  8
stair_stringer
100
AcDbLine
 10
88.637401354
 20
368.617540345
 30
38.100000000
 11
334.016432930
 21
210.151326712
 31
38.100000000
  0
LINE
  5
AB0
330
A02
100
AcDbEntity
  8
stair_stringer
100
AcDbLine
 10
334.016432930
 20
210.151326712
 30
38.100000000
 11
439.086422403
 21
372.848293301
 31
38.100000000
  0
LINE
  5
AB1
330
A02
100
AcDbEntity
  8
stair_stringer
100
AcDbLine
 10
439.086422403
 20
372.848293301
 30
38.100000000
 11
684.465453979
 21
214.382079668
 31
38.100000000
  0
LINE
  5
AB2
330
A02
100
AcDbEntity
  8
stair_stringer
100
AcDbLine
 10
684.465453979
 20
214.382079668
 30
38.100000000
 11
789.535443453
 21
377.079046257
 31
38.100000000
  0
LINE
  5
AB3
330
A02
100
AcDbEntity
  8
stair_stringer
100
AcDbLine
 10
789.535443453
 20
377.079046257
 30
38.100000000
 11
1034.914475029
 21
218.612832624
 31
38.100000000
  0
LINE
  5
AB4
330
A02
100
AcDbEntity
  8
stair_stringer
100
AcDbLine
 10
1034.914475029
 20
218.612832624
 30
38.100000000
 11
1139.984464502
 21
381.309799213
 31
38.100000000
  0
LINE
  5
AB5
330
A02
100
AcDbEntity
  8
stair_stringer
100
AcDbLine
 10
1139.984464502
 20
381.309799213
 30
38.100000000
 11
1385.363496078
 21
222.843585580
 31
38.100000000
  0
LINE
  5
AB6
330
A02
100
AcDbEntity
  8
stair_stringer
100
AcDbLine
 10
1385.363496078
 20
222.843585580
 30
38.100000000
 11
1490.433485551
 21
385.540552169
 31
38.100000000
  0
LINE
  5
AB7
330
A02
100
AcDbEntity
  8
stair_stringer
100
AcDbLine
 10
1490.433485551
 20
385.540552169
 30
38.100000000
 11
1735.812517127
 21
227.074338536
 31
38.100000000
  0
LINE
  5
AB8
330
A02
100
AcDbEntity
  8
stair_stringer
100
AcDbLine
 10
1735.812517127
 20
227.074338536
 30
38.100000000
 11
1840.882506601
 21
389.771305125
 31
38.100000000
  0
LINE
  5
AB9
330
A02
100
AcDbEntity
  8
stair_stringer
100
AcDbLine
 10
1840.882506601
 20
389.771305125
 30
38.100000000
 11
2086.261538176
 21
231.305091492
 31
38.100000000
  0
LINE
  5
ABA
330
A02
100
AcDbEntity
  8
stair_stringer
100
AcDbLine
 10
2086.261538176
 20
231.305091492
 30
38.100000000
 11
2191.331527650
 21
394.002058080
 31
38.100000000
  0
LINE
  5
ABB
330
A02
100
AcDbEntity
  8
stair_stringer
100
AcDbLine
 10
2191.331527650
 20
394.002058080
 30
38.100000000
 11
2436.710559226
 21
235.535844448
 31
38.100000000
  0
LINE
  5
ABC
330
A02
100
AcDbEntity
  8
stair_stringer
100
AcDbLine
 10
2436.710559226
 20
235.535844448
 30
38.100000000
 11
2541.780548699
 21
398.232811036
 31
38.100000000
  0
LINE
  5
ABD
330
A02
100
AcDbEntity
  8
stair_stringer
100
AcDbLine
 10
2541.780548699
 20
398.232811036
 30
38.100000000
 11
2787.159580275
 21
239.766597404
 31
38.100000000
  0
LINE
  5
ABE
330
A02
100
AcDbEntity
  8
stair_stringer
100
AcDbLine
 10
2787.159580275
 20
239.766597404
 30
38.100000000
 11
2892.229569749
 21
402.463563992
 31
38.100000000
  0
LINE
  5
ABF
330
A02
100
AcDbEntity
  8
stair_stringer
100
AcDbLine
 10
2892.229569749
 20
402.463563992
 30
38.100000000
 11
3137.608601324
 21
243.997350360
 31
38.100000000
  0
LINE
  5
AC0
330
A02
100
AcDbEntity
  8
stair_stringer
100
AcDbLine
 10
3137.608601324
 20
243.997350360
 30
38.100000000
 11
3242.678590798
 21
406.694316948
 31
38.100000000
  0
LINE
  5
AC1
330
A02
100
AcDbEntity
  8
stair_stringer
100
AcDbLine
 10
3242.678590798
 20
406.694316948
 30
38.100000000
 11
3488.057622374
 21
248.228103316
 31
38.100000000
  0
LINE
  5
AC2
330
A02
100
AcDbEntity
  8
stair_stringer
100
AcDbLine
 10
3488.057622374
 20
248.228103316
 30
38.100000000
 11
3593.127611847
 21
410.925069904
 31
38.100000000
  0
LINE
  5
AC3
330
A02
100
AcDbEntity
  8
stair_stringer
100
AcDbLine
 10
3593.127611847
 20
410.925069904
 30
38.100000000
 11
3838.506643423
 21
252.458856272
 31
38.100000000
  0
LINE
  5
AC4
330
A02
100
AcDbEntity
  8
stair_stringer
100
AcDbLine
 10
3838.506643423
 20
252.458856272
 30
38.100000000
 11
3943.576632897
 21
415.155822860
 31
38.100000000
  0
LINE
  5
AC5
330
A02
100
AcDbEntity
  8
stair_stringer
100
AcDbLine
 10
3943.576632897
 20
415.155822860
 30
38.100000000
 11
4188.955664472
 21
256.689609228
 31
38.100000000
  0
LINE
  5
AC6
330
A02
100
AcDbEntity
  8
stair_stringer
100
AcDbLine
 10
4188.955664472
 20
256.689609228
 30
38.100000000
 11
4294.025653946
 21
419.386575816
 31
38.100000000
  0
LINE
  5
AC7
330
A02
100
AcDbEntity
  8
stair_stringer
100
AcDbLine
 10
4294.025653946
 20
419.386575816
 30
38.100000000
 11
4539.404685522
 21
260.920362184
 31
38.100000000
  0
LINE
  5
AC8
330
A02
100
AcDbEntity
  8
stair_stringer
100
AcDbLine
 10
4539.404685522
 20
260.920362184
 30
38.100000000
 11
4644.474674995
 21
423.617328772
 31
38.100000000
  0
LINE
  5
AC9
330
A02
100
AcDbEntity
  8
stair_stringer
100
AcDbLine
 10
4644.474674995
 20
423.617328772
 30
38.100000000
 11
4889.853706571
 21
265.151115140
 31
38.100000000
  0
LINE
  5
ACA
330
A02
100
AcDbEntity
  8
stair_stringer
100
AcDbLine
 10
4889.853706571
 20
265.151115140
 30
38.100000000
 11
4994.923696045
 21
427.848081728
 31
38.100000000
  0
LINE
  5
ACB
330
A02
100
AcDbEntity
  8
stair_stringer
100
AcDbLine
 10
4994.923696045
 20
427.848081728
 30
38.100000000
 11
5240.302727620
 21
269.381868096
 31
38.100000000
  0
LINE
  5
ACC
330
A02
100
AcDbEntity
  8
stair_stringer
100
AcDbLine
 10
5240.302727620
 20
269.381868096
 30
38.100000000
 11
5066.334384394
 21
-0.001633960
 31
38.100000000
  0
LINE
  5
ACD
330
A02
100
AcDbEntity
  8
stair_stringer
100
AcDbLine
 10
5066.334384394
 20
-0.001633960
 30
38.100000000
 11
349.481548028
 21
0.000000000
 31
38.100000000
  0
ENDSEC
  0
SECTION
  2
OBJECTS
  0
DICTIONARY
  5
F000
330
0
100
AcDbDictionary
  3
ACAD_GROUP
350
F001
  0
DICTIONARY
  5
F001
330
F000
100
AcDbDictionary
  0
ENDSEC
  0
EOF